REM DIRINDEX 1\2\6,1\2\7,1\2\8,1\3\9,1\3\10,1\3\11,1\4\12,1\4\13,1\4\14,1\5\15,1\5\16,1\5\17,1\5\18
REM DIRNAME folder01,folder02,folder03,folder04,folder05,folder06,folder07,folder08,folder09,folder10,folder11,folder12,folder13,folder14,folder15,folder16,folder17,folder18
TITLE ""
FILE "" MP3
  TRACK 01 AUDIO
    TITLE "16:cjc019_4799"
    INDEX 01 00:00:00
  TRACK 02 AUDIO
    TITLE "0:"
    INDEX 01 00:01:24
  TRACK 03 AUDIO
    TITLE "18:cjc019_4800"
    INDEX 01 00:02:00
  TRACK 04 AUDIO
    TITLE "0:"
    INDEX 01 00:05:40
  TRACK 05 AUDIO
    TITLE "17:cjc019_4801"
    INDEX 01 00:06:16
  TRACK 06 AUDIO
    TITLE "0:"
    INDEX 01 00:07:54
  TRACK 07 AUDIO
    TITLE "16:cjc019_4802"
    INDEX 01 00:09:32
  TRACK 08 AUDIO
    TITLE "0:"
    INDEX 01 00:10:47
  TRACK 09 AUDIO
    TITLE "18:cjc019_4803"
    INDEX 01 00:11:23
  TRACK 10 AUDIO
    TITLE "0:"
    INDEX 01 00:14:11
  TRACK 11 AUDIO
    TITLE "17:cjc019_4804"
    INDEX 01 00:14:64
  TRACK 12 AUDIO
    TITLE "0:"
    INDEX 01 00:16:04
  TRACK 13 AUDIO
    TITLE "16:cjc019_4805"
    INDEX 01 00:17:55
  TRACK 14 AUDIO
    TITLE "0:"
    INDEX 01 00:18:50
  TRACK 15 AUDIO
    TITLE "18:cjc019_4806"
    INDEX 01 00:19:36
  TRACK 16 AUDIO
    TITLE "0:"
    INDEX 01 00:22:15
  TRACK 17 AUDIO
    TITLE "17:cjc019_4807"
    INDEX 01 00:22:68
  TRACK 18 AUDIO
    TITLE "0:"
    INDEX 01 00:23:67
  TRACK 19 AUDIO
    TITLE "16:cjc019_4808"
    INDEX 01 00:25:45
  TRACK 20 AUDIO
    TITLE "0:"
    INDEX 01 00:27:12
  TRACK 21 AUDIO
    TITLE "18:cjc019_4809"
    INDEX 01 00:27:67
  TRACK 22 AUDIO
    TITLE "0:"
    INDEX 01 00:29:33
  TRACK 23 AUDIO
    TITLE "17:cjc019_4810"
    INDEX 01 00:30:03
  TRACK 24 AUDIO
    TITLE "0:"
    INDEX 01 00:31:45
  TRACK 25 AUDIO
    TITLE "16:cjc019_4811"
    INDEX 01 00:33:28
  TRACK 26 AUDIO
    TITLE "0:"
    INDEX 01 00:34:43
  TRACK 27 AUDIO
    TITLE "18:cjc019_4812"
    INDEX 01 00:35:21
  TRACK 28 AUDIO
    TITLE "0:"
    INDEX 01 00:36:23
  TRACK 29 AUDIO
    TITLE "17:cjc019_4813"
    INDEX 01 00:36:74
  TRACK 30 AUDIO
    TITLE "0:"
    INDEX 01 00:38:16
  TRACK 31 AUDIO
    TITLE "16:cjc019_4814"
    INDEX 01 00:39:68
  TRACK 32 AUDIO
    TITLE "0:"
    INDEX 01 00:41:20
  TRACK 33 AUDIO
    TITLE "18:cjc019_4815"
    INDEX 01 00:42:02
  TRACK 34 AUDIO
    TITLE "0:"
    INDEX 01 00:45:04
  TRACK 35 AUDIO
    TITLE "17:cjc019_4816"
    INDEX 01 00:45:59
  TRACK 36 AUDIO
    TITLE "0:"
    INDEX 01 00:47:09
  TRACK 37 AUDIO
    TITLE "16:cjc019_4817"
    INDEX 01 00:48:69
  TRACK 38 AUDIO
    TITLE "0:"
    INDEX 01 00:50:25
  TRACK 39 AUDIO
    TITLE "18:cjc019_4818"
    INDEX 01 00:51:03
  TRACK 40 AUDIO
    TITLE "0:"
    INDEX 01 00:53:62
  TRACK 41 AUDIO
    TITLE "17:cjc019_4819"
    INDEX 01 00:54:36
  TRACK 42 AUDIO
    TITLE "0:"
    INDEX 01 00:55:65
  TRACK 43 AUDIO
    TITLE "16:cjc019_4820"
    INDEX 01 00:57:50
  TRACK 44 AUDIO
    TITLE "0:"
    INDEX 01 00:58:69
  TRACK 45 AUDIO
    TITLE "18:cjc019_4821"
    INDEX 01 00:59:49
  TRACK 46 AUDIO
    TITLE "0:"
    INDEX 01 01:02:55
  TRACK 47 AUDIO
    TITLE "17:cjc019_4822"
    INDEX 01 01:03:27
  TRACK 48 AUDIO
    TITLE "0:"
    INDEX 01 01:04:43
  TRACK 49 AUDIO
    TITLE "16:cjc019_4823"
    INDEX 01 01:06:26
  TRACK 50 AUDIO
    TITLE "0:"
    INDEX 01 01:07:70
  TRACK 51 AUDIO
    TITLE "18:cjc019_4824"
    INDEX 01 01:08:48
  TRACK 52 AUDIO
    TITLE "0:"
    INDEX 01 01:10:30
  TRACK 53 AUDIO
    TITLE "17:cjc019_4825"
    INDEX 01 01:11:02
  TRACK 54 AUDIO
    TITLE "0:"
    INDEX 01 01:12:46
  TRACK 55 AUDIO
    TITLE "16:cjc019_4826"
    INDEX 01 01:14:27
  TRACK 56 AUDIO
    TITLE "0:"
    INDEX 01 01:15:44
  TRACK 57 AUDIO
    TITLE "18:cjc019_4827"
    INDEX 01 01:16:24
  TRACK 58 AUDIO
    TITLE "0:"
    INDEX 01 01:19:62
  TRACK 59 AUDIO
    TITLE "17:cjc019_4828"
    INDEX 01 01:20:36
  TRACK 60 AUDIO
    TITLE "0:"
    INDEX 01 01:21:55
  TRACK 61 AUDIO
    TITLE "16:cjc019_4829"
    INDEX 01 01:23:36
  TRACK 62 AUDIO
    TITLE "0:"
    INDEX 01 01:24:47
  TRACK 63 AUDIO
    TITLE "18:cjc019_4830"
    INDEX 01 01:25:29
  TRACK 64 AUDIO
    TITLE "0:"
    INDEX 01 01:28:55
  TRACK 65 AUDIO
    TITLE "17:cjc019_4831"
    INDEX 01 01:29:31
  TRACK 66 AUDIO
    TITLE "0:"
    INDEX 01 01:30:46
  TRACK 67 AUDIO
    TITLE "16:cjc019_4832"
    INDEX 01 01:32:27
  TRACK 68 AUDIO
    TITLE "0:"
    INDEX 01 01:33:48
  TRACK 69 AUDIO
    TITLE "18:cjc019_4833"
    INDEX 01 01:34:26
  TRACK 70 AUDIO
    TITLE "0:"
    INDEX 01 01:37:56
  TRACK 71 AUDIO
    TITLE "17:cjc019_4834"
    INDEX 01 01:38:38
  TRACK 72 AUDIO
    TITLE "0:"
    INDEX 01 01:39:55
  TRACK 73 AUDIO
    TITLE "16:cjc019_4835"
    INDEX 01 01:41:38
  TRACK 74 AUDIO
    TITLE "0:"
    INDEX 01 01:42:53
  TRACK 75 AUDIO
    TITLE "18:cjc019_4836"
    INDEX 01 01:43:37
  TRACK 76 AUDIO
    TITLE "0:"
    INDEX 01 01:46:49
  TRACK 77 AUDIO
    TITLE "17:cjc019_4837"
    INDEX 01 01:47:23
  TRACK 78 AUDIO
    TITLE "0:"
    INDEX 01 01:48:42
  TRACK 79 AUDIO
    TITLE "16:cjc019_4838"
    INDEX 01 01:50:19
  TRACK 80 AUDIO
    TITLE "0:"
    INDEX 01 01:51:42
  TRACK 81 AUDIO
    TITLE "18:cjc019_4839"
    INDEX 01 01:52:22
  TRACK 82 AUDIO
    TITLE "0:"
    INDEX 01 01:55:22
  TRACK 83 AUDIO
    TITLE "17:cjc019_4840"
    INDEX 01 01:55:73
  TRACK 84 AUDIO
    TITLE "0:"
    INDEX 01 01:57:19
  TRACK 85 AUDIO
    TITLE "16:cjc019_4841"
    INDEX 01 01:58:74
  TRACK 86 AUDIO
    TITLE "0:"
    INDEX 01 02:00:18
  TRACK 87 AUDIO
    TITLE "18:cjc019_4842"
    INDEX 01 02:00:69
  TRACK 88 AUDIO
    TITLE "0:"
    INDEX 01 02:02:48
  TRACK 89 AUDIO
    TITLE "17:cjc019_4843"
    INDEX 01 02:03:22
  TRACK 90 AUDIO
    TITLE "0:"
    INDEX 01 02:04:41
  TRACK 91 AUDIO
    TITLE "16:cjc019_4844"
    INDEX 01 02:06:26
  TRACK 92 AUDIO
    TITLE "0:"
    INDEX 01 02:07:37
  TRACK 93 AUDIO
    TITLE "18:cjc019_4845"
    INDEX 01 02:08:15
  TRACK 94 AUDIO
    TITLE "0:"
    INDEX 01 02:09:21
  TRACK 95 AUDIO
    TITLE "17:cjc019_4846"
    INDEX 01 02:09:71
  TRACK 96 AUDIO
    TITLE "0:"
    INDEX 01 02:11:12
  TRACK 97 AUDIO
    TITLE "16:cjc019_4847"
    INDEX 01 02:12:66
  TRACK 98 AUDIO
    TITLE "0:"
    INDEX 01 02:14:16
  TRACK 99 AUDIO
    TITLE "18:cjc019_4848"
    INDEX 01 02:14:73
  TRACK 100 AUDIO
    TITLE "0:"
    INDEX 01 02:16:48
  TRACK 101 AUDIO
    TITLE "17:cjc019_4849"
    INDEX 01 02:17:22
  TRACK 102 AUDIO
    TITLE "0:"
    INDEX 01 02:18:47
  TRACK 103 AUDIO
    TITLE "16:cjc019_4850"
    INDEX 01 02:20:28
  TRACK 104 AUDIO
    TITLE "0:"
    INDEX 01 02:21:61
  TRACK 105 AUDIO
    TITLE "18:cjc019_4851"
    INDEX 01 02:22:39
  TRACK 106 AUDIO
    TITLE "0:"
    INDEX 01 02:26:09
  TRACK 107 AUDIO
    TITLE "17:cjc019_4852"
    INDEX 01 02:26:54
  TRACK 108 AUDIO
    TITLE "0:"
    INDEX 01 02:28:18
